%TF.GenerationSoftware,KiCad,Pcbnew,6.0.1-79c1e3a40b~116~ubuntu20.04.1*%
%TF.CreationDate,2022-02-10T07:45:33-06:00*%
%TF.ProjectId,pico-ducky,7069636f-2d64-4756-936b-792e6b696361,rev?*%
%TF.SameCoordinates,Original*%
%TF.FileFunction,Soldermask,Bot*%
%TF.FilePolarity,Negative*%
%FSLAX46Y46*%
G04 Gerber Fmt 4.6, Leading zero omitted, Abs format (unit mm)*
G04 Created by KiCad (PCBNEW 6.0.1-79c1e3a40b~116~ubuntu20.04.1) date 2022-02-10 07:45:33*
%MOMM*%
%LPD*%
G01*
G04 APERTURE LIST*
%ADD10C,1.320800*%
%ADD11C,1.752600*%
%ADD12R,1.700000X1.700000*%
%ADD13O,1.700000X1.700000*%
%ADD14R,1.308000X1.308000*%
%ADD15C,1.308000*%
%ADD16C,3.200000*%
G04 APERTURE END LIST*
D10*
%TO.C,SW3*%
X105400000Y-71800000D03*
X105400000Y-73800001D03*
X105400000Y-75800000D03*
X105400000Y-77800001D03*
X105400000Y-79799999D03*
X105400000Y-81800000D03*
D11*
X105400000Y-69700000D03*
X105400000Y-83900000D03*
%TD*%
D12*
%TO.C,J2*%
X131000000Y-53400000D03*
D13*
X131000000Y-55940000D03*
X131000000Y-58480000D03*
X131000000Y-61020000D03*
X131000000Y-63560000D03*
X131000000Y-66100000D03*
X131000000Y-68640000D03*
X131000000Y-71180000D03*
X131000000Y-73720000D03*
X131000000Y-76260000D03*
X131000000Y-78800000D03*
X131000000Y-81340000D03*
X131000000Y-83880000D03*
X131000000Y-86420000D03*
X131000000Y-88960000D03*
X131000000Y-91500000D03*
X131000000Y-94040000D03*
X131000000Y-96580000D03*
X131000000Y-99120000D03*
X131000000Y-101660000D03*
%TD*%
D14*
%TO.C,S1*%
X105200000Y-98000000D03*
D15*
X105200000Y-95460000D03*
X105200000Y-100540000D03*
%TD*%
D16*
%TO.C,REF\u002A\u002A*%
X105500000Y-46600000D03*
%TD*%
D12*
%TO.C,J1*%
X112950000Y-53205000D03*
D13*
X112950000Y-55745000D03*
X112950000Y-58285000D03*
X112950000Y-60825000D03*
X112950000Y-63365000D03*
X112950000Y-65905000D03*
X112950000Y-68445000D03*
X112950000Y-70985000D03*
X112950000Y-73525000D03*
X112950000Y-76065000D03*
X112950000Y-78605000D03*
X112950000Y-81145000D03*
X112950000Y-83685000D03*
X112950000Y-86225000D03*
X112950000Y-88765000D03*
X112950000Y-91305000D03*
X112950000Y-93845000D03*
X112950000Y-96385000D03*
X112950000Y-98925000D03*
X112950000Y-101465000D03*
%TD*%
D14*
%TO.C,S2*%
X105700000Y-56740000D03*
D15*
X105700000Y-54200000D03*
X105700000Y-59280000D03*
%TD*%
D16*
%TO.C,REF\u002A\u002A*%
X135400000Y-46700000D03*
%TD*%
%TO.C,REF\u002A\u002A*%
X135500000Y-107300000D03*
%TD*%
%TO.C,REF\u002A\u002A*%
X105800000Y-107400000D03*
%TD*%
M02*
