M48
; DRILL file {KiCad 6.0.1-79c1e3a40b~116~ubuntu20.04.1} date Thu 10 Feb 2022 07:45:38 AM CST
; FORMAT={-:-/ absolute / inch / decimal}
; #@! TF.CreationDate,2022-02-10T07:45:38-06:00
; #@! TF.GenerationSoftware,Kicad,Pcbnew,6.0.1-79c1e3a40b~116~ubuntu20.04.1
; #@! TF.FileFunction,Plated,1,2,PTH
FMAT,2
INCH
; #@! TA.AperFunction,Plated,PTH,ComponentDrill
T1C0.0315
; #@! TA.AperFunction,Plated,PTH,ComponentDrill
T2C0.0320
; #@! TA.AperFunction,Plated,PTH,ComponentDrill
T3C0.0394
; #@! TA.AperFunction,Plated,PTH,ComponentDrill
T4C0.0490
%
G90
G05
T1
X4.1417Y-3.7583
X4.1417Y-3.8583
X4.1417Y-3.9583
X4.1614Y-2.1339
X4.1614Y-2.2339
X4.1614Y-2.3339
T2
X4.1496Y-2.8268
X4.1496Y-2.9055
X4.1496Y-2.9843
X4.1496Y-3.063
X4.1496Y-3.1417
X4.1496Y-3.2205
T3
X4.4469Y-2.0947
X4.4469Y-2.1947
X4.4469Y-2.2947
X4.4469Y-2.3947
X4.4469Y-2.4947
X4.4469Y-2.5947
X4.4469Y-2.6947
X4.4469Y-2.7947
X4.4469Y-2.8947
X4.4469Y-2.9947
X4.4469Y-3.0947
X4.4469Y-3.1947
X4.4469Y-3.2947
X4.4469Y-3.3947
X4.4469Y-3.4947
X4.4469Y-3.5947
X4.4469Y-3.6947
X4.4469Y-3.7947
X4.4469Y-3.8947
X4.4469Y-3.9947
X5.1575Y-2.1024
X5.1575Y-2.2024
X5.1575Y-2.3024
X5.1575Y-2.4024
X5.1575Y-2.5024
X5.1575Y-2.6024
X5.1575Y-2.7024
X5.1575Y-2.8024
X5.1575Y-2.9024
X5.1575Y-3.0024
X5.1575Y-3.1024
X5.1575Y-3.2024
X5.1575Y-3.3024
X5.1575Y-3.4024
X5.1575Y-3.5024
X5.1575Y-3.6024
X5.1575Y-3.7024
X5.1575Y-3.8024
X5.1575Y-3.9024
X5.1575Y-4.0024
T4
X4.1496Y-2.7441
X4.1496Y-3.3031
T0
M30
